<svg xmlns="http://www.w3.org/2000/svg" viewBox="0 0 750 500"><g id="freepik--background-complete--inject-11"><path d="M444.41,437.23a1024,1024,0,0,0-120-.89l-1.83.77c16.82,10.19,38,7.48,57.53,10.08,11.75,1.57,23.19,5.17,35,6.12s24.64-1.18,33.15-9.42a4.65,4.65,0,0,0,1.77-3.2C450,438.26,446.84,437.39,444.41,437.23Z" style="fill:#f5f5f5"></path><path d="M659.43,448.61c-3.75-2.18-8.25-2.53-12.58-2.83l-23.74-1.63c-6.48-.45-13.12-.88-19.35.92s-12.11,6.34-13.63,12.65l0,.21c11.25,2.3,22.55,4.62,34,5.22s23.21-.58,33.79-5c2.23-.94,4.71-2.46,4.81-4.88C662.78,451.25,661.15,449.6,659.43,448.61Z" style="fill:#f5f5f5"></path><path d="M202,435.88c-3.76-2.18-8.26-2.53-12.59-2.83l-23.74-1.63c-6.47-.45-13.11-.88-19.35.93s-12.1,6.33-13.63,12.64l0,.21c11.25,2.31,22.55,4.62,34,5.22s23.2-.58,33.78-5c2.23-.94,4.71-2.47,4.81-4.88C205.35,438.52,203.71,436.88,202,435.88Z" style="fill:#f5f5f5"></path><path d="M81.77,204.46l-8.51,2.61s2.19,7.15-5.2,9.55a7.19,7.19,0,0,1-8-2.35,8,8,0,0,1-1.51-7.07c.72-2.82,3.21-6,9.26-6.71l-5.89-19.18-8.41,2.58L57,195.13s-10.87,6.67-6.88,19.67c3.82,12.44,15.86,11.91,20.64,10.44C74.36,224.12,86.53,219.43,81.77,204.46Z" style="fill:#e0e0e0"></path><rect x="50.77" y="170.5" width="8.93" height="8.34" transform="translate(159.26 325.47) rotate(162.95)" style="fill:#e0e0e0"></rect><path d="M253,348.56l-4.8,1.47a4.25,4.25,0,0,1-2.93,5.38,4.06,4.06,0,0,1-4.52-1.32,4.51,4.51,0,0,1-.85-4c.41-1.6,1.82-3.36,5.22-3.78l-3.31-10.82L237,337l2,6.34a9.68,9.68,0,0,0-3.88,11.09c2.15,7,8.94,6.72,11.63,5.89C248.8,359.64,255.67,357,253,348.56Z" style="fill:#e0e0e0"></path><rect x="235.5" y="329.4" width="5.04" height="4.7" transform="translate(562.86 579.13) rotate(162.95)" style="fill:#e0e0e0"></rect><path d="M645.73,54.11l5-.26a4.27,4.27,0,0,1,4.16-4.5A4.07,4.07,0,0,1,659,51.74a4.49,4.49,0,0,1-.16,4.08c-.78,1.44-2.57,2.81-6,2.38l.57,11.31,5-.25L658,62.64a9.69,9.69,0,0,0,6.47-9.81c-.37-7.33-7-8.7-9.84-8.56C652.49,44.38,645.19,45.27,645.73,54.11Z" style="fill:#e0e0e0"></path><rect x="653.6" y="71.7" width="5.04" height="4.7" transform="translate(-2.89 33.08) rotate(-2.88)" style="fill:#e0e0e0"></rect><path d="M227.69,57.62l5-.25a4.27,4.27,0,0,1,4.15-4.51,4.07,4.07,0,0,1,4.06,2.39,4.52,4.52,0,0,1-.15,4.08c-.78,1.45-2.58,2.81-6,2.39l.57,11.3,5-.25L240,66.15a9.69,9.69,0,0,0,6.47-9.81c-.37-7.33-7-8.7-9.84-8.56C234.45,47.89,227.15,48.78,227.69,57.62Z" style="fill:#e0e0e0"></path><rect x="235.56" y="75.22" width="5.04" height="4.7" transform="translate(-3.6 12.07) rotate(-2.88)" style="fill:#e0e0e0"></rect><path d="M711.78,137.28,704.21,142s3.93,6.35-2.6,10.55a7.19,7.19,0,0,1-8.35-.25A8,8,0,0,1,690,145.8c0-2.91,1.6-6.57,7.26-8.83L686.72,119.9l-7.49,4.63,6.18,10s-8.82,9.2-1.67,20.77c6.84,11.07,18.36,7.51,22.61,4.88C709.6,158.17,720.18,150.54,711.78,137.28Z" style="fill:#ebebeb"></path><rect x="674.11" y="111" width="8.93" height="8.34" transform="translate(1316.35 -143.61) rotate(148.28)" style="fill:#ebebeb"></rect><path d="M250.23,204.94l5.44,4s3.36-4.57,8.17-1.16a5.46,5.46,0,0,1,2.19,5.94,6.05,6.05,0,0,1-3.62,4.12c-2,.84-5.08.74-8.27-2.6l-9,12.26,5.38,3.95,5.28-7.18s9,3.6,15.09-4.72c5.85-8,.07-15-3-17.28C265.55,200.55,257.19,195.27,250.23,204.94Z" style="fill:#fafafa"></path><rect x="240.72" y="231.41" width="6.77" height="6.33" transform="translate(186.38 -99.01) rotate(36.32)" style="fill:#fafafa"></rect><path d="M539.3,65.36l5.44,4s3.35-4.57,8.16-1.16a5.45,5.45,0,0,1,2.2,5.94,6.07,6.07,0,0,1-3.63,4.12c-2,.85-5.08.74-8.27-2.6l-9,12.26,5.37,4,5.28-7.19s9,3.6,15.09-4.71c5.85-8,.08-15-3-17.29C554.62,61,546.25,55.69,539.3,65.36Z" style="fill:#fafafa"></path><rect x="529.78" y="91.83" width="6.77" height="6.33" transform="translate(159.88 -297.37) rotate(36.32)" style="fill:#fafafa"></rect></g><g id="freepik--Floor--inject-11"><path d="M707.54,424.91c0,.15-150.48.26-336.07.26s-336.09-.11-336.09-.26,150.44-.26,336.09-.26S707.54,424.77,707.54,424.91Z" style="fill:#263238"></path></g><g id="freepik--Letters--inject-11"><path d="M276.91,275.87v28.3H212.74V424.94H181.65v-279H292.46v28.29H212.74V275.87Z" style="fill:#4A4944"></path><path d="M322.84,368.74l-10.76,56.2H283.39l53.4-279h45l53.41,279H404.15l-10.76-56.2Zm4-26.7H389L357.52,181Z" style="fill:#4A4944"></path><path d="M576.59,213.3V357.58c0,17.14-3.58,32.28-10.76,43.44,3.19,6.78,8.37,8.77,17.14,8.77h4v27.5h-5.18c-17.54,0-29.1-6.37-35.48-17.93-8.77,5.18-20.32,8.37-33.88,8.37-42.64,0-63.77-27.9-63.77-70.15V213.3c0-42.65,21.13-70.15,63.77-70.15C555.47,143.15,576.59,170.65,576.59,213.3Zm-97.25-1.6V359.17c0,25.51,10.76,40.26,33.08,40.26,22.72,0,33.09-14.75,33.09-40.26V211.7c0-25.11-10.37-40.25-33.09-40.25C490.1,171.45,479.34,186.59,479.34,211.7Z" style="fill:#4A4944"></path><g style="opacity:0.30000000000000004"><path d="M276.91,275.87v28.3H212.74V424.94H181.65v-279H292.46v28.29H212.74V275.87Z"></path><path d="M322.84,368.74l-10.76,56.2H283.39l53.4-279h45l53.41,279H404.15l-10.76-56.2Zm4-26.7H389L357.52,181Z"></path><path d="M576.59,213.3V357.58c0,17.14-3.58,32.28-10.76,43.44,3.19,6.78,8.37,8.77,17.14,8.77h4v27.5h-5.18c-17.54,0-29.1-6.37-35.48-17.93-8.77,5.18-20.32,8.37-33.88,8.37-42.64,0-63.77-27.9-63.77-70.15V213.3c0-42.65,21.13-70.15,63.77-70.15C555.47,143.15,576.59,170.65,576.59,213.3Zm-97.25-1.6V359.17c0,25.51,10.76,40.26,33.08,40.26,22.72,0,33.09-14.75,33.09-40.26V211.7c0-25.11-10.37-40.25-33.09-40.25C490.1,171.45,479.34,186.59,479.34,211.7Z"></path></g><path d="M303.53,368.74l-10.76,56.2h-28.7l53.41-279h45l53.41,279H384.84l-10.76-56.2Zm4-26.7h62.18L338.21,181Z" style="fill:#4A4944"></path><path d="M264.33,276v28.3H200.16V425.1H169.07v-279h110.8v28.3H200.16V276Z" style="fill:#4A4944"></path><path d="M557.28,213V357.31c0,17.14-3.59,32.29-10.76,43.45,3.19,6.77,8.37,8.77,17.14,8.77h4V437h-5.18c-17.54,0-29.1-6.38-35.47-17.94-8.77,5.18-20.33,8.37-33.88,8.37-42.65,0-63.77-27.9-63.77-70.15V213c0-42.65,21.12-70.15,63.77-70.15C536.15,142.88,557.28,170.38,557.28,213ZM460,211.44V358.91c0,25.51,10.76,40.25,33.08,40.25,22.72,0,33.08-14.74,33.08-40.25V211.44c0-25.11-10.36-40.26-33.08-40.26C470.79,171.18,460,186.33,460,211.44Z" style="fill:#4A4944"></path></g><g id="freepik--speech-bubble--inject-11"><polygon points="123.78 63.91 66.12 63.91 66.12 119.78 85.9 119.78 95.87 130.88 104.1 119.78 123.78 119.78 123.78 63.91" style="fill:#fff"></polygon><path d="M123.78,63.91s0,.33,0,1,0,1.67,0,3c0,2.61,0,6.42.05,11.28,0,9.78.06,23.77.1,40.64v.2H104.1l.17-.08L96.05,131l-.16.22-.19-.2c-3.17-3.54-6.54-7.28-10-11.1l.17.08h-20v-.23c0-20.48,0-39.58,0-55.87v-.2h.2l41.89.1,11.67,0,3.06,0,1,0-1.08,0-3.1,0L107.88,64l-41.76.1.2-.2c0,16.29,0,35.39,0,55.87l-.23-.23H86l.06.08,10,11.1-.35,0,8.24-11.1.06-.08h19.79l-.2.2c0-16.82.08-30.76.1-40.51,0-4.88,0-8.71,0-11.33,0-1.3,0-2.3,0-3S123.78,63.91,123.78,63.91Z" style="fill:#263238"></path><path d="M85.47,84.85H90.6a4.36,4.36,0,0,1,4.47-4.38,4.14,4.14,0,0,1,4,2.65,4.59,4.59,0,0,1-.36,4.15c-.87,1.43-2.78,2.73-6.23,2.13V101h5.07V94.18a9.9,9.9,0,0,0,7.1-9.67c0-7.49-6.72-9.23-9.59-9.23C92.87,75.28,85.37,75.81,85.47,84.85Z" style="fill:#4A4944"></path><rect x="92.48" y="103.33" width="5.14" height="4.8" style="fill:#4A4944"></rect></g><g id="freepik--Plants--inject-11"><path d="M636.74,249.5c9.17,4.75,16.2,12.92,21.25,21.93s8.32,18.88,11.54,28.69l2.83,50.58c-10.67-18.15-19.23-39.48-21.55-60.41l7.1-.63c-4.76-.73-8.75-4.18-11.3-8.26s-3.85-8.81-5.12-13.45l8.66,1.29A32.13,32.13,0,0,1,636.74,249.5Z" style="fill:#455a64"></path><g style="opacity:0.30000000000000004"><path d="M636.74,249.5c9.17,4.75,16.2,12.92,21.25,21.93s8.32,18.88,11.54,28.69l2.83,50.58c-10.67-18.15-19.23-39.48-21.55-60.41l7.1-.63c-4.76-.73-8.75-4.18-11.3-8.26s-3.85-8.81-5.12-13.45l8.66,1.29A32.13,32.13,0,0,1,636.74,249.5Z"></path></g><path d="M673.94,362.55s23.15-27.71,22.88-54.17h-9.35s10.16-6.68,9.36-10.42-1.08-17.91-1.08-17.91l-8.55,2.14s6.42-3.21,7.22-8.28-1.87-28.6-1.87-28.6-10.42,11-13.63,22.18-11.63,24.32-9.15,58.53S673.94,362.55,673.94,362.55Z" style="fill:#455a64"></path><path d="M662.2,365.17s-25.09-16.71-30.66-38l7.52-2.05s-9.63-3.15-9.8-6.33-3.06-14.63-3.06-14.63l7.34-.15s-5.86-1.18-7.61-5.09-4.75-23.4-4.75-23.4S632,282,637,290.34s14.66,17,20.16,45.05S662.2,365.17,662.2,365.17Z" style="fill:#455a64"></path><path d="M686.22,269.47a1.1,1.1,0,0,1,0,.3c0,.22-.09.51-.16.86l-.65,3.31c-.29,1.43-.63,3.19-1,5.23s-.85,4.37-1.3,6.94c-.94,5.15-2,11.29-3,18.12s-2,14.37-3,22.3-1.63,15.5-2.19,22.39-1,13.11-1.21,18.33c-.15,2.62-.23,5-.32,7.06s-.16,3.86-.2,5.32-.1,2.56-.13,3.37l0,.87a1.4,1.4,0,0,1,0,.3,1.71,1.71,0,0,1,0-.3V383c0-.81,0-1.94,0-3.37s0-3.26.12-5.33.12-4.45.25-7.06c.2-5.23.58-11.45,1.09-18.36s1.24-14.47,2.15-22.41,2-15.47,3-22.31,2.13-13,3.12-18.12c.47-2.57,1-4.89,1.37-6.92s.78-3.79,1.11-5.22.56-2.5.74-3.29l.2-.85A1.32,1.32,0,0,1,686.22,269.47Z" style="fill:#263238"></path><path d="M677.15,379.52s21.19-24,27.77-38.57l-5-2.13c3.6.6,7.29-.95,10.08-3.3s4.84-5.44,6.85-8.48l-6.54-1.11a24.36,24.36,0,0,0,14.3-11.07c-7.73,1.27-14.71,5.51-20.47,10.81A101.79,101.79,0,0,0,691.77,340,49.19,49.19,0,0,0,687,348C683.4,355.31,677.14,370.69,677.15,379.52Z" style="fill:#455a64"></path><path d="M631.2,289.48s.06.07.15.22l.36.68c.34.64.79,1.51,1.37,2.63,1.19,2.28,2.85,5.62,4.84,9.77,4,8.3,9.16,19.92,14.24,33s9,25.2,11.68,34c1.32,4.41,2.34,8,3,10.48l.76,2.86c.07.31.13.55.18.75a1,1,0,0,1,.05.26,1.13,1.13,0,0,1-.1-.24c-.06-.2-.14-.44-.23-.74-.21-.69-.49-1.64-.85-2.84-.72-2.47-1.79-6-3.16-10.42-2.72-8.79-6.75-20.85-11.81-33.94s-10.2-24.72-14.09-33.05c-1.94-4.17-3.55-7.53-4.68-9.84l-1.28-2.67-.32-.7C631.23,289.57,631.2,289.48,631.2,289.48Z" style="fill:#263238"></path><path d="M675.35,389.83a10.76,10.76,0,0,1,.12-1.75c.11-1.12.34-2.73.68-4.71A85.34,85.34,0,0,1,687.2,354.1c1-1.71,1.95-3.07,2.61-4a10.18,10.18,0,0,1,1.06-1.39,11.59,11.59,0,0,1-.89,1.5c-.61.94-1.46,2.33-2.46,4.06a94.87,94.87,0,0,0-11,29.15c-.39,2-.67,3.56-.83,4.67A11,11,0,0,1,675.35,389.83Z" style="fill:#263238"></path><rect x="647.39" y="384.17" width="46.38" height="9.46" style="fill:#4A4944"></rect><polygon points="689.35 393.63 684.33 425.45 656.31 425.45 651.63 393.63 689.35 393.63" style="fill:#4A4944"></polygon><path d="M650.23,393.63c0-.14,8.78-.26,19.6-.26s19.59.12,19.59.26-8.77.26-19.59.26S650.23,393.77,650.23,393.63Z" style="fill:#263238"></path><path d="M77.67,343a43.63,43.63,0,0,1,41.6-11.42,75.72,75.72,0,0,1-42.09,13.15" style="fill:#455a64"></path><path d="M91.78,293c-1.73-12.26,3-26,12.21-35,.31,12.15-4.82,25.82-12.21,35" style="fill:#455a64"></path><path d="M84.44,316.19a65.48,65.48,0,0,1,30.07-28.73,41.34,41.34,0,0,1-30.18,28.86" style="fill:#455a64"></path><path d="M82.92,320.66c7.41.2,14.9-.06,22.06-2s14-5.54,18.78-11.21A73.77,73.77,0,0,0,83,319.94" style="fill:#455a64"></path><path d="M86.68,305.94c-3.76-14.09-10-23.83-21-31.72a29.29,29.29,0,0,0,21,31.72" style="fill:#455a64"></path><path d="M58.73,330.23A20.86,20.86,0,0,1,71.4,310.92c-.62,7.27-6.33,15.69-12.67,19.31" style="fill:#455a64"></path><path d="M55.19,318.36a31.07,31.07,0,0,0-20.35-26.51c2.56,11.77,9.37,21.57,20.35,26.51" style="fill:#455a64"></path><path d="M60.53,339.43c-2.62-3.73-6.88-6.06-11.29-7.21s-9-1.26-13.57-1.35a31.75,31.75,0,0,0,24.51,10.21" style="fill:#455a64"></path><path d="M65.82,369.46a34.77,34.77,0,0,0-42.46,20.11c15.43-2.93,30.64-9.78,42.46-20.11" style="fill:#455a64"></path><path d="M82.74,359c-2.56,7.57-2.07,16.73,3.63,23.25A27.74,27.74,0,0,0,82.74,359" style="fill:#455a64"></path><path d="M92.75,354.82a28.46,28.46,0,0,0,15.73,23.11,1.78,1.78,0,0,0,1.39.23c.7-.28.76-1.23.67-2-1.11-9.71-8.3-19.09-17.79-21.37" style="fill:#455a64"></path><path d="M99.28,353.83a23.38,23.38,0,0,0,34.13.18c-10.85-1.19-23.37-2-34.13-.18" style="fill:#455a64"></path><path d="M100.91,267.11s0,.11-.1.31-.2.53-.33.92l-1.31,3.51c-.59,1.52-1.26,3.4-2,5.57-.39,1.09-.81,2.26-1.26,3.49l-1.35,3.92c-1.92,5.49-4.06,12.09-6.36,19.43s-4.64,15.47-7,24-4.35,16.79-6.09,24.28-3.14,14.29-4.19,20c-.27,1.43-.53,2.79-.77,4.08s-.43,2.51-.62,3.65c-.4,2.28-.73,4.24-1,5.85s-.43,2.84-.57,3.71c-.06.4-.12.72-.16,1a2.92,2.92,0,0,1-.06.32,1.64,1.64,0,0,1,0-.33l.12-1c.12-.87.28-2.12.49-3.71s.52-3.59.89-5.87c.18-1.14.38-2.36.59-3.66s.48-2.65.74-4.08c1-5.74,2.44-12.53,4.11-20s3.75-15.73,6.06-24.31,4.73-16.69,7-24,4.49-13.93,6.45-19.42c.49-1.37,1-2.67,1.38-3.91s.89-2.39,1.29-3.48c.8-2.16,1.5-4,2.11-5.54s1-2.67,1.38-3.49c.15-.38.28-.68.37-.9A1.09,1.09,0,0,1,100.91,267.11Z" style="fill:#263238"></path><path d="M41.32,298.14s.07.05.18.17l.52.55c.46.48,1.11,1.2,1.93,2.16a75.77,75.77,0,0,1,6.39,8.51A57.32,57.32,0,0,1,57,323.82a138.9,138.9,0,0,1,4,18.91c2.21,13.53,4.92,25.64,6.88,34.41,1,4.36,1.78,7.89,2.34,10.37l.63,2.83.15.73a.72.72,0,0,1,0,.26,1.26,1.26,0,0,1-.08-.25l-.19-.73c-.17-.66-.4-1.6-.7-2.8L67.61,377.2c-2-8.74-4.79-20.86-7-34.4a142.45,142.45,0,0,0-4-18.87,57.8,57.8,0,0,0-6.56-14.24,80.27,80.27,0,0,0-6.26-8.57c-.8-1-1.44-1.7-1.87-2.2l-.49-.58C41.36,298.21,41.31,298.14,41.32,298.14Z" style="fill:#263238"></path><path d="M102.52,353.37a1.52,1.52,0,0,1-.39.07l-1.12.13-.81.08-1,.14c-.69.1-1.48.2-2.33.39l-1.35.27-1.44.37c-1,.22-2,.59-3.15.92a46.76,46.76,0,0,0-6.87,3,39.48,39.48,0,0,0-6.16,4.28,30.33,30.33,0,0,0-2.36,2.27,24.68,24.68,0,0,0-1.87,2.15,21.13,21.13,0,0,0-1.38,1.91,12.68,12.68,0,0,0-1,1.51l-.58,1a1.45,1.45,0,0,1-.22.33s0-.13.15-.37l.51-1a12.8,12.8,0,0,1,.89-1.55,19.39,19.39,0,0,1,1.35-2,24.41,24.41,0,0,1,1.85-2.22,30.66,30.66,0,0,1,2.36-2.32,37.58,37.58,0,0,1,6.21-4.35,44.48,44.48,0,0,1,6.95-3c1.12-.33,2.17-.68,3.18-.9l1.46-.34,1.37-.25c.86-.17,1.65-.25,2.35-.33l1-.11.81,0,1.14-.05A1.44,1.44,0,0,1,102.52,353.37Z" style="fill:#263238"></path><path d="M105.61,298.4a5.27,5.27,0,0,1-.78.75l-2.23,1.94c-1.9,1.62-4.54,3.84-7.47,6.27s-5.6,4.61-7.55,6.18l-2.31,1.83a5.52,5.52,0,0,1-.89.63,5.27,5.27,0,0,1,.78-.75l2.24-1.94c1.9-1.62,4.53-3.84,7.46-6.27s5.6-4.61,7.55-6.18l2.31-1.83A5.52,5.52,0,0,1,105.61,298.4Z" style="fill:#263238"></path><path d="M108.28,312.75c0,.11-5.67,1.89-12.72,4s-12.81,3.69-12.84,3.58,5.66-1.89,12.72-4S108.25,312.64,108.28,312.75Z" style="fill:#263238"></path><path d="M87.25,307a3.65,3.65,0,0,1-.59-.81l-1.5-2.29c-1.28-1.93-3.09-4.56-5.22-7.36s-4.2-5.23-5.72-7l-1.81-2.06a6.3,6.3,0,0,1-.63-.78,4.11,4.11,0,0,1,.75.67c.47.45,1.12,1.13,1.91,2,1.57,1.7,3.68,4.11,5.83,6.92s3.92,5.48,5.13,7.45c.61,1,1.09,1.79,1.4,2.36A5.8,5.8,0,0,1,87.25,307Z" style="fill:#263238"></path><path d="M67.46,315a18.75,18.75,0,0,1-1.33,2.2c-.85,1.33-2,3.19-3.2,5.3s-2.21,4-2.92,5.46a19.33,19.33,0,0,1-1.21,2.27,13.41,13.41,0,0,1,.94-2.4c.65-1.45,1.63-3.43,2.83-5.54s2.4-4,3.31-5.26A14.18,14.18,0,0,1,67.46,315Z" style="fill:#263238"></path><path d="M60.7,339.82a30.69,30.69,0,0,1-2.9-1.27c-1.78-.8-4.26-1.85-7.07-2.83s-5.4-1.71-7.29-2.2a29.33,29.33,0,0,1-3.06-.81,4.35,4.35,0,0,1,.85.09c.54.08,1.32.23,2.28.44a62.49,62.49,0,0,1,7.36,2.09,64.89,64.89,0,0,1,7.06,2.95c.87.44,1.57.81,2,1.08A4.79,4.79,0,0,1,60.7,339.82Z" style="fill:#263238"></path><path d="M66,369.5s-.11.06-.35.12l-1,.26-3.79.88A125.82,125.82,0,0,0,48.49,374a54.39,54.39,0,0,0-11.55,5.43c-1.38.87-2.45,1.65-3.18,2.21a10.49,10.49,0,0,1-1.15.85s.08-.11.26-.27.43-.42.79-.71a34.32,34.32,0,0,1,3.12-2.33,50.63,50.63,0,0,1,11.57-5.57,103.31,103.31,0,0,1,12.45-3.16l3.81-.75A10.92,10.92,0,0,1,66,369.5Z" style="fill:#263238"></path><path d="M85.29,376.82c-.11,0-.79-4-1.51-8.93s-1.22-9-1.11-9,.79,4,1.52,8.92S85.41,376.8,85.29,376.82Z" style="fill:#263238"></path><path d="M105.35,369.53a21.24,21.24,0,0,1-1.81-2.14c-1.08-1.35-2.58-3.21-4.28-5.23S96,358.33,94.84,357a21.54,21.54,0,0,1-1.8-2.15,2.66,2.66,0,0,1,.58.5c.35.33.84.83,1.44,1.46,1.2,1.25,2.81,3,4.52,5.05s3.17,3.92,4.2,5.32c.51.7.92,1.27,1.19,1.67A2.73,2.73,0,0,1,105.35,369.53Z" style="fill:#263238"></path><polygon points="52.27 388.14 52.27 398.05 54.74 398.05 63.55 425.86 83.09 425.86 91.63 398.32 94.93 398.05 94.93 388.14 52.27 388.14" style="fill:#4A4944"></polygon><path d="M93.28,398.32c0,.12-8.63.21-19.27.21s-19.27-.09-19.27-.21,8.63-.2,19.27-.2S93.28,398.21,93.28,398.32Z" style="fill:#263238"></path><path d="M107.33,334.57a8.39,8.39,0,0,1-1.25.34l-3.43.82c-2.89.72-6.86,1.8-11.16,3.25s-8.13,3-10.86,4.16l-3.24,1.41a7.3,7.3,0,0,1-1.2.49,7.25,7.25,0,0,1,1.13-.63c.74-.39,1.83-.92,3.19-1.54a110.66,110.66,0,0,1,10.84-4.28,112.11,112.11,0,0,1,11.23-3.14c1.46-.33,2.64-.56,3.47-.7A6.66,6.66,0,0,1,107.33,334.57Z" style="fill:#263238"></path><path d="M86.79,413.77c0,.11-6.05.2-13.51.2s-13.52-.09-13.52-.2,6.05-.21,13.52-.21S86.79,413.65,86.79,413.77Z" style="fill:#fafafa"></path><path d="M87.55,411.47c0,.11-6.41.21-14.32.21s-14.33-.1-14.33-.21,6.41-.21,14.33-.21S87.55,411.35,87.55,411.47Z" style="fill:#fafafa"></path></g></svg>